<svg width="18" height="18" viewBox="0 0 18 18" fill="none" xmlns="http://www.w3.org/2000/svg">
<path d="M5.625 6.375C5.92047 6.375 6.21306 6.3168 6.48604 6.20373C6.75902 6.09066 7.00706 5.92492 7.21599 5.71599C7.42492 5.50706 7.59066 5.25902 7.70373 4.98604C7.8168 4.71306 7.875 4.42047 7.875 4.125C7.875 3.82953 7.8168 3.53694 7.70373 3.26396C7.59066 2.99098 7.42492 2.74294 7.21599 2.53401C7.00706 2.32508 6.75902 2.15934 6.48604 2.04627C6.21306 1.9332 5.92047 1.875 5.625 1.875C5.02826 1.875 4.45597 2.11205 4.03401 2.53401C3.61205 2.95597 3.375 3.52826 3.375 4.125C3.375 4.72174 3.61205 5.29403 4.03401 5.71599C4.45597 6.13795 5.02826 6.375 5.625 6.375ZM12.375 6.375C12.6705 6.375 12.9631 6.3168 13.236 6.20373C13.509 6.09066 13.7571 5.92492 13.966 5.71599C14.1749 5.50706 14.3407 5.25902 14.4537 4.98604C14.5668 4.71306 14.625 4.42047 14.625 4.125C14.625 3.82953 14.5668 3.53694 14.4537 3.26396C14.3407 2.99098 14.1749 2.74294 13.966 2.53401C13.7571 2.32508 13.509 2.15934 13.236 2.04627C12.9631 1.9332 12.6705 1.875 12.375 1.875C11.7783 1.875 11.206 2.11205 10.784 2.53401C10.3621 2.95597 10.125 3.52826 10.125 4.125C10.125 4.72174 10.3621 5.29403 10.784 5.71599C11.206 6.13795 11.7783 6.375 12.375 6.375ZM1.5 8.41725C1.5 8.24755 1.53342 8.07951 1.59837 7.92273C1.66331 7.76594 1.75849 7.62349 1.87849 7.50349C1.99849 7.38349 2.14094 7.28831 2.29773 7.22337C2.45451 7.15843 2.62255 7.125 2.79225 7.125H6.40125C6.13752 7.58085 5.99909 8.09836 6 8.625C5.9995 9.05069 6.08982 9.47159 6.26494 9.85959C6.44005 10.2476 6.69594 10.5938 7.0155 10.875H6.16725C5.80997 10.8747 5.45888 10.9682 5.14911 11.1463C4.83934 11.3243 4.58175 11.5805 4.40213 11.8894C3.19388 11.6524 2.45963 11.0632 2.03213 10.4014C1.5 9.5775 1.5 8.72625 1.5 8.57888V8.41725ZM11.8328 10.875C12.19 10.8747 12.5411 10.9682 12.8509 11.1463C13.1607 11.3243 13.4183 11.5805 13.5979 11.8894C14.8061 11.6524 15.5404 11.0632 15.9679 10.4014C16.5 9.5775 16.5 8.72625 16.5 8.57888V8.41763C16.5001 8.24789 16.4667 8.07981 16.4017 7.92299C16.3368 7.76616 16.2416 7.62366 16.1216 7.50362C16.0016 7.38359 15.8592 7.28837 15.7024 7.2234C15.5456 7.15844 15.3775 7.125 15.2078 7.125H11.5988C11.8625 7.58085 12.0009 8.09836 12 8.625C12.0005 9.05069 11.9102 9.47159 11.7351 9.85959C11.5599 10.2476 11.3041 10.5938 10.9845 10.875H11.8328ZM11.25 8.625C11.25 9.22174 11.0129 9.79403 10.591 10.216C10.169 10.6379 9.59674 10.875 9 10.875C8.40326 10.875 7.83097 10.6379 7.40901 10.216C6.98705 9.79403 6.75 9.22174 6.75 8.625C6.75 8.02826 6.98705 7.45597 7.40901 7.03401C7.83097 6.61205 8.40326 6.375 9 6.375C9.59674 6.375 10.169 6.61205 10.591 7.03401C11.0129 7.45597 11.25 8.02826 11.25 8.625ZM4.875 12.9172C4.875 12.5745 5.01115 12.2458 5.25349 12.0035C5.49584 11.7611 5.82452 11.625 6.16725 11.625H11.8328C12.1755 11.625 12.5042 11.7611 12.7465 12.0035C12.9889 12.2458 13.125 12.5745 13.125 12.9172V13.0789C13.125 13.2266 13.125 14.0775 12.5929 14.9014C12.0368 15.7624 10.9624 16.5 9 16.5C7.03763 16.5 5.96325 15.7624 5.40713 14.9014C4.875 14.0775 4.875 13.2262 4.875 13.0789V12.9172Z" fill="#953FAA"/>
</svg>
