<svg width="16" height="16" viewBox="0 0 16 16" fill="none" xmlns="http://www.w3.org/2000/svg">
<g clip-path="url(#clip0_2284_578)">
<path fill-rule="evenodd" clip-rule="evenodd" d="M15.8539 5.14592C15.9005 5.19236 15.9374 5.24754 15.9626 5.30828C15.9878 5.36903 16.0008 5.43415 16.0008 5.49992C16.0008 5.56568 15.9878 5.63081 15.9626 5.69155C15.9374 5.7523 15.9005 5.80747 15.8539 5.85392L12.8539 8.85392C12.8075 8.90048 12.7523 8.93742 12.6915 8.96263C12.6308 8.98784 12.5657 9.00081 12.4999 9.00081C12.4341 9.00081 12.369 8.98784 12.3083 8.96263C12.2475 8.93742 12.1923 8.90048 12.1459 8.85392L10.6459 7.35392C10.552 7.26003 10.4993 7.13269 10.4993 6.99992C10.4993 6.86714 10.552 6.7398 10.6459 6.64592C10.7398 6.55203 10.8671 6.49929 10.9999 6.49929C11.1327 6.49929 11.26 6.55203 11.3539 6.64592L12.4999 7.79292L15.1459 5.14592C15.1923 5.09935 15.2475 5.06241 15.3083 5.0372C15.369 5.012 15.4341 4.99902 15.4999 4.99902C15.5657 4.99902 15.6308 5.012 15.6915 5.0372C15.7523 5.06241 15.8075 5.09935 15.8539 5.14592Z" fill="#953FAA"/>
<path d="M1 14C1 14 0 14 0 13C0 12 1 9 6 9C11 9 12 12 12 13C12 14 11 14 11 14H1ZM6 8C6.79565 8 7.55871 7.68393 8.12132 7.12132C8.68393 6.55871 9 5.79565 9 5C9 4.20435 8.68393 3.44129 8.12132 2.87868C7.55871 2.31607 6.79565 2 6 2C5.20435 2 4.44129 2.31607 3.87868 2.87868C3.31607 3.44129 3 4.20435 3 5C3 5.79565 3.31607 6.55871 3.87868 7.12132C4.44129 7.68393 5.20435 8 6 8Z" fill="#953FAA"/>
</g>
<defs>
<clipPath id="clip0_2284_578">
<rect width="16" height="16" fill="white"/>
</clipPath>
</defs>
</svg>
